<svg xmlns="http://www.w3.org/2000/svg" viewBox="0 0 1200 630" width="100%" height="100%">
  <defs>
    <linearGradient id="bg" x1="0%" y1="0%" x2="100%" y2="100%">
      <stop offset="0%" stop-color="#070a12"/>
      <stop offset="50%" stop-color="#0f172a"/>
      <stop offset="100%" stop-color="#172554"/>
    </linearGradient>
    <linearGradient id="reactGrad" x1="0%" y1="0%" x2="100%" y2="100%">
      <stop offset="0%" stop-color="#00d8ff"/>
      <stop offset="100%" stop-color="#1d4ed8"/>
    </linearGradient>
    <linearGradient id="doliGrad" x1="0%" y1="0%" x2="100%" y2="100%">
      <stop offset="0%" stop-color="#22c55e"/>
      <stop offset="100%" stop-color="#15803d"/>
    </linearGradient>
    <linearGradient id="lineGrad" x1="0%" y1="0%" x2="100%" y2="0%">
      <stop offset="0%" stop-color="#00d8ff"/>
      <stop offset="50%" stop-color="#3b82f6"/>
      <stop offset="100%" stop-color="#22c55e"/>
    </linearGradient>
  </defs>

  <rect width="1200" height="630" fill="url(#bg)"/>

  <circle cx="980" cy="220" r="190" fill="#22c55e" filter="blur(110px)" opacity="0.1"/>
  <circle cx="550" cy="280" r="170" fill="#00d8ff" filter="blur(100px)" opacity="0.15"/>

  <rect x="50" y="50" width="1100" height="530" rx="24" fill="#ffffff" fill-opacity="0.01" stroke="#ffffff" stroke-opacity="0.05" stroke-width="1.5"/>

  <text x="90" y="130" fill="#ffffff" font-size="44" font-family="Segoe UI, system-ui, sans-serif" font-weight="800" letter-spacing="-0.5">
    Dolibarr 23 &amp; React Payroll Bridge
  </text>
  <text x="90" y="180" fill="#94a3b8" font-size="24" font-family="Segoe UI, system-ui, sans-serif" font-weight="400">
    HRM Module Sync, Custom SQLite CRUD &amp; Payroll Dashboard
  </text>

  <g transform="translate(90, 260)">
    <g transform="translate(0, 0)">
      <rect width="240" height="44" rx="12" fill="#1e3a8a" stroke="#00d8ff" stroke-width="1.5"/>
      <circle cx="28" cy="22" r="5" fill="#00d8ff"/>
      <text x="48" y="27" fill="#f1f5f9" font-size="14" font-family="Segoe UI, sans-serif" font-weight="700">React Client (NewAPP)</text>
    </g>
    <g transform="translate(0, 60)">
      <rect width="240" height="44" rx="12" fill="#0f172a" stroke="#38bdf8" stroke-width="1.5"/>
      <circle cx="28" cy="22" r="5" fill="#38bdf8"/>
      <text x="48" y="27" fill="#f1f5f9" font-size="14" font-family="Segoe UI, sans-serif" font-weight="700">SQLite</text>
    </g>
    <g transform="translate(0, 120)">
      <rect width="240" height="44" rx="12" fill="#172554" stroke="#60a5fa" stroke-width="1.5" stroke-dasharray="4 2"/>
      <circle cx="28" cy="22" r="5" fill="#60a5fa"/>
      <text x="48" y="27" fill="#f1f5f9" font-size="14" font-family="Segoe UI, sans-serif" font-weight="700">Dolibarr REST API (JSON)</text>
    </g>
    <g transform="translate(0, 180)">
      <rect width="240" height="44" rx="12" fill="#14532d" stroke="#22c55e" stroke-width="1.5"/>
      <circle cx="28" cy="22" r="5" fill="#22c55e"/>
      <text x="48" y="27" fill="#f1f5f9" font-size="14" font-family="Segoe UI, sans-serif" font-weight="700">Dolibarr v23 (ExistingApp)</text>
    </g>
  </g>

  <g transform="translate(560, 265)">
    <path d="M 85 45 Q 190 10, 295 45" fill="none" stroke="url(#lineGrad)" stroke-width="3" stroke-dasharray="6 4" opacity="0.9"/>
    <path d="M 85 75 Q 190 75, 295 75" fill="none" stroke="url(#lineGrad)" stroke-width="3" opacity="0.4"/>
    <path d="M 85 105 Q 190 140, 295 105" fill="none" stroke="url(#lineGrad)" stroke-width="3" stroke-dasharray="2 2" opacity="0.9"/>
    
    <text x="190" y="22" fill="#38bdf8" font-size="12" font-family="Segoe UI, sans-serif" font-weight="600" text-anchor="middle">Multi-installment Payments</text>
    <text x="190" y="148" fill="#4ade80" font-size="12" font-family="Segoe UI, sans-serif" font-weight="600" text-anchor="middle">HRM Data &amp; Salaries Sync</text>

    <g transform="translate(0, 30)">
      <rect width="85" height="90" rx="14" fill="url(#reactGrad)" opacity="0.15"/>
      <rect width="85" height="90" rx="14" fill="none" stroke="#00d8ff" stroke-width="2"/>
      
      <rect x="22" y="45" width="8" height="20" rx="1" fill="#38bdf8"/>
      <rect x="34" y="35" width="8" height="30" rx="1" fill="#00d8ff"/>
      <rect x="46" y="25" width="8" height="40" rx="1" fill="#60a5fa"/>
      <line x1="16" y1="65" x2="68" y2="65" stroke="#ffffff" stroke-opacity="0.4" stroke-width="1.5"/>
      
      <path d="M 52 74 C 52 72, 72 72, 72 74 L 72 81 C 72 83, 52 83, 52 81 Z" fill="#38bdf8" fill-opacity="0.8"/>
      <ellipse cx="62" cy="74" rx="10" ry="2.5" fill="#00d8ff"/>
      <text x="34" y="81" fill="#00d8ff" font-size="8" font-family="Segoe UI, sans-serif" font-weight="800">SQLITE</text>
    </g>

    <g transform="translate(295, 30)">
      <rect width="85" height="90" rx="14" fill="url(#doliGrad)" opacity="0.15"/>
      <rect width="85" height="90" rx="14" fill="none" stroke="#22c55e" stroke-width="2"/>
      
      <circle cx="42.5" cy="36" r="10" fill="none" stroke="#22c55e" stroke-width="2"/>
      <path d="M 26 58 C 26 48, 59 48, 59 58 Z" fill="none" stroke="#22c55e" stroke-width="2"/>
      
      <circle cx="62" cy="58" r="9" fill="#22c55e"/>
      <text x="62" y="62" fill="#ffffff" font-size="11" font-family="Segoe UI, sans-serif" font-weight="900" text-anchor="middle">€</text>
      
      <text x="42.5" y="82" fill="#4ade80" font-size="12" font-family="Segoe UI, sans-serif" font-weight="800" text-anchor="middle">DOLIBARR</text>
    </g>
  </g>
</svg>
